<?xml version="1.0" encoding="utf-8"?>
<!-- Generator: Adobe Illustrator 18.0.0, SVG Export Plug-In . SVG Version: 6.00 Build 0)  -->
<!DOCTYPE svg PUBLIC "-//W3C//DTD SVG 1.1//EN" "http://www.w3.org/Graphics/SVG/1.1/DTD/svg11.dtd">
<svg version="1.1" xmlns="http://www.w3.org/2000/svg" xmlns:xlink="http://www.w3.org/1999/xlink" x="0px" y="0px"
	 viewBox="0 0 480 425.1" enable-background="new 0 0 480 425.1" xml:space="preserve">
<g id="Layer_1">
	<path fill="#C0C0C0" d="M282.7,416.1c-1.5-3.5-3.4-7-2.4-12.7c3-18.4,7-34.6,10.1-53.5c1.6-9.6-0.5-21.4-2-29.5
		c-0.6-3.3-1.6-9.8-0.5-13.8c4.8,0,11-1.3,12.9-4.3c2.4-3.9,0.9-17.4,1.8-22.9c2.9-17.6,5.9-43.6,2.5-62.6
		c-0.9-5.1-3.1-9.9-3.8-14.5c-0.6-3.9,1.3-9.2,0.5-14.3c-0.8-3.7-1.5-7.5-2.3-11.2c1.8-3.4,3.5-6.8,5.3-10.2
		c3.2-7.2,5.8-14.9,7.3-23.7c0.2-3.6,0.3-7.3,0.5-10.9c0.5-3.1,1.1-8.1,0.2-11.5c-1.8-7.2-6-10.7-12.4-13.2
		c-2.1-0.8-5.1-1.7-7.9-2.9l11.5-29.3l30.3,12.3l47.9,16.7c0,0,44.9,14,41.3,11c-3.6-3-33.8-63.3-38.1-64
		c-4.3-0.7-54.6-39.1-54.6-39.1l0.3-5l-3.2-1.6l-2.4,3.1l-2.7,0.5c-2.7,0.5-47.6-5.6-89.2-9.2c-4.4-0.4-54,22-54,22l15.7,7.3
		l39.1,16.4l25.7,11.1c-0.1,1.7-0.1,3.4-0.2,5.1c-1,4.5-2.6,10.5-1.5,16.8c1,5.9,5.1,9.3,4.1,15.8c-8,8.3-23,2.6-32.7,8.4
		c-5.2,3.1-6.5,10.6-8.6,17.1c-3.9,12.1-17.1,41.3-8.4,55.2c4,1.3,12.1-0.8,12.2-0.8c-0.6,2-1.2,4.1-1.8,6.1
		c-1.3,1.5-2.5,3.1-3.8,4.6c-1.1,7.3-2.2,14.6-3.3,21.9c-1.4,7.4-5.3,18.3-3,27.5c0.2,0.1,0.3,0.2,0.5,0.2c4-0.4,7.1-3.1,11.9-2.3
		c-0.1,16.5-2.7,35.5,0.3,51.9c0.2,3.2,0.3,6.4,0.5,9.7c1.2,1.9,2.4,3.9,3.5,5.8c0.1,3.6,0.2,7.1,0.2,10.7c1.5,9,1.9,17.7,4.3,25.5
		c4.1,13.3,9.4,25.6,14.7,37.9c1.9,4.6,5,9,6.3,14.2c3,11.6-4.6,17.4-7.9,23.4c-0.2,1.5-0.4,3.1-0.6,4.6l-67,0
		c0.4-1.2,0.5-2.5,0.4-3.9l2.2-133.5l-1.7-3c0,0.1,0,0.2-0.1,0.3c0-0.1,0-0.2,0.1-0.3c0.5-2.5,0.9-4.4,1.2-5.7
		c0.4-1.5,0.8-2.3,0.9-2.6h0c0-0.1,0.1-0.2,0.1-0.2v-11.7c0,0-1.4-2.2-3.4-5.2l0,0c-2-14-4.3-22.8-6.1-28.1c-1.7-5-3-6.8-3.1-7.1h0
		l0,0l15.9-1.6c11.6-1.6,8.8-9.3,8.8-9.3c-1.2-19-21.5-19-21.5-19l-11.9-0.4c-4.4-0.8-3.2,4.2-3.2,4.2l-1.3,9.9l0,0
		c-3.3-1.5-27.8-66.2-27.8-66.2c-3.3-7.8-6.9-13.1-9.8-16.7c-3.8-4.6-6.6-6.4-6.6-6.4c-2-0.5-5.4-0.9-9.8-1.3l0,0c0,0,0,0,0,0l0,0.1
		c-0.1,0-0.2,0-0.3,0v0C77.4,106,18.2,104.3,0,103.8v27l103.1,3.6c12.3,0.8,11.5,6.1,11.5,6.1l19.5,55.7c1.1,3.8,0.6,6-0.4,7.3
		c-0.3,0.4-0.6,0.7-1,0.9c-1.7,1.1-3.8,0.8-3.8,0.8l-8.4-0.2l-74.4-2.3l-14.5-0.5l-3.8-0.1l-26.3-0.8l-1.6,0v53.1l1.2,0h0.5l65-0.4
		c14.7,0,14.3,5.6,14.3,5.6l-0.1,3.8L77,289.8c0,0-3.2,3.2-3.2,3.2l-72.3-0.6H1.2l-1.2,0v41l1,0h0.5l72.2-0.4l-1.6,19.4
		c-6,12.5-8.8,10.1-8.8,10.1l-62.1-0.8l-1.2,0v24.1l1.5,0l130.3-0.7c0,0,0,0.3,0,0.3L133,415c0,0,0.3,0.4,0.7,1.1H0v9h146.2
		c0.1,0,0.2,0,0.4,0.1l2-0.1h46H480v-9.2L282.7,416.1z M290.7,80.4c1.5-1.2,3.5-1,4.6-2.5c1-1.5,1.9-3.3,2.7-5.2l3.3,1.4l-11.4,29.1
		c-2.3-1.3-4-2.8-4.5-4.9C283.9,91.8,288,82.5,290.7,80.4z M103,108.5L103,108.5L103,108.5L103,108.5L103,108.5z M161,287.9
		l-41.1,0.4l0-0.1h0l-6.3,0.1h-0.1l-8.2,0.1c-1,0-2-0.1-2.9-0.3c-0.2,0-0.5-0.1-0.7-0.2h0c-0.9-0.2-1.7-0.5-2.5-0.9c0,0,0,0,0,0
		c-0.6-0.3-1.2-0.6-1.7-1c-1.1-0.7-2.1-1.6-2.9-2.7c-1.9-2.4-3.1-5.4-3.1-8.7v-9.8c-0.1-0.5-0.1-1-0.1-1.5c0.2-1.6,1.6-3.2,2.9-4.4
		c1.5-1.3,3-2.2,3-2.2l15.8-0.2l32.7-0.8v0.2l2.6-0.1c10,0.8,11.9,4.7,11.9,4.7v0.1L161,287.9L161,287.9z M266.3,381.5
		c-2.5-5.4-4.6-11.2-5.8-18.1c-1.4-8.2,0-17.1-1.5-24.7c-1.5-7.3-5.6-13.6-6.8-20.4c-0.5-3,1.9-5,2.5-7.1c0.3-3.2,0.7-6.5,1-9.7
		c3.3-1.1,6.6-2.2,9.9-3.3c-0.3,5.7-0.5,11.4-0.8,17.1c1.4,5.3,2.7,10.5,4.1,15.8c-0.1,5.9-0.2,11.7-0.2,17.6c1,13.4,2,26.8,3,40.2
		C268.6,386.9,267.9,384.8,266.3,381.5z"/>
</g>
<g id="Layer_2" display="none">
	<g display="inline">
		<path fill="#C0C0C0" d="M584,353.7v61.9h-16.2v-61.9H584 M585,352.7h-18.2v63.9H585V352.7L585,352.7z"/>
	</g>
	<g display="inline">
		<path fill="#C0C0C0" d="M584,289.7v61.9h-16.2v-61.9H584 M585,288.7h-18.2v63.9H585V288.7L585,288.7z"/>
	</g>
	<g display="inline">
		<path fill="#C0C0C0" d="M584,225.8v61.9h-16.2v-61.9H584 M585,224.8h-18.2v63.9H585V224.8L585,224.8z"/>
	</g>
	<g display="inline">
		<path fill="#C0C0C0" d="M584,161.9v61.9h-16.2v-61.9H584 M585,160.9h-18.2v63.9H585V160.9L585,160.9z"/>
	</g>
	<g display="inline">
		<path fill="#C0C0C0" d="M584,97.9v61.9h-16.2V97.9H584 M585,96.9h-18.2v63.9H585V96.9L585,96.9z"/>
	</g>
	<g display="inline">
		<path fill="#C0C0C0" d="M584,34v61.9h-16.2V34H584 M585,33h-18.2v63.9H585V33L585,33z"/>
	</g>
	<g display="inline">
		<path fill="#C0C0C0" d="M584,1v31h-16.2V1H584 M585,0h-18.2v33H585V0L585,0z"/>
	</g>
	<rect x="510" y="-6" display="inline" fill="#C0C0C0" width="37" height="422.6"/>
</g>
</svg>
