<?xml version="1.0" encoding="utf-8"?>
<!-- Generator: Adobe Illustrator 19.1.0, SVG Export Plug-In . SVG Version: 6.00 Build 0)  -->
<svg version="1.1" id="Layer_1" xmlns="http://www.w3.org/2000/svg" xmlns:xlink="http://www.w3.org/1999/xlink" x="0px" y="0px"
	 viewBox="-377 595 36 36" style="enable-background:new -377 595 36 36;" xml:space="preserve">
<style type="text/css">
	.st0{opacity:0.8;fill:#F05022;stroke:#FFFFFF;stroke-miterlimit:10;}
	.st1{fill:#707070;stroke:#FFFFFF;stroke-miterlimit:10;}
	.st2{fill:#FFFFFF;}
</style>
<title>marker-11.svg</title>
<title>marker-11.svg</title>
<path class="st0" d="M-362.8,627.2l-10.4-10.4c-2.1-2.1-2.1-5.5,0-7.6l10.4-10.4c2.1-2.1,5.5-2.1,7.6,0l10.4,10.4
	c2.1,2.1,2.1,5.5,0,7.6l-10.4,10.4C-357.3,629.3-360.7,629.3-362.8,627.2z"/>
<path class="st1" d="M-359,613"/>
<g>
	<path class="st2" d="M-353.9,619.9c-0.6,0-1.1-0.4-1.1-1.1v-1.8c-1.1,1-2.5,1.6-4,1.6c-1.5,0-2.9-0.6-4-1.6v1.7
		c0,0.6-0.4,1.1-1.1,1.1s-1.1-0.4-1.1-1.1v-4.8h-4.9c-0.6,0-1.1-0.4-1.1-1.1s0.4-1.1,1.1-1.1h4.9v-4.8c0-0.6,0.4-1.1,1.1-1.1
		s1.1,0.4,1.1,1.1v1.8c1.1-1,2.5-1.6,4-1.6c1.5,0,2.9,0.6,4,1.6v-1.7c0-0.6,0.4-1.1,1.1-1.1s1.1,0.4,1.1,1.1v4.8h4.9
		c0.6,0,1.1,0.4,1.1,1.1s-0.4,1.1-1.1,1.1h-4.9v4.8C-352.8,619.5-353.3,619.9-353.9,619.9z M-359,609.4c-1.9,0-3.6,1.7-3.6,3.6
		c0,2,1.6,3.6,3.6,3.6s3.6-1.6,3.6-3.6C-355.4,611.1-357.1,609.4-359,609.4z"/>
</g>
</svg>
